<svg width="144" height="63" viewBox="0 0 144 63" fill="none" xmlns="http://www.w3.org/2000/svg">
<path d="M113.141 43.0317C113.141 45.745 104.417 59.7765 104.417 62.3325C104.417 62.5423 104.207 62.6323 103.914 62.6323C103.18 62.6323 101.838 61.9727 101.838 60.9158C101.838 58.3599 110.383 46.0673 110.383 42.2746C110.383 41.5851 110.091 41.1578 109.386 41.1578C106.808 41.1578 100.556 45.7375 100.556 48.3534C100.556 49.013 101.081 49.2904 101.081 49.5602C101.081 49.7701 100.736 49.92 100.317 49.92C99.4472 49.92 98.1055 49.2904 98.1055 47.1467C98.1055 43.9536 105.046 39.8011 109.851 39.8011C111.672 39.8161 113.141 41.4052 113.141 43.0317Z" fill="white"/>
<path d="M124.444 53.6602C124.684 53.6602 124.999 53.99 124.999 54.1999C124.999 54.2599 124.999 54.2899 124.976 54.3198C124.527 54.8295 120.929 60.8859 118.56 60.8859C117.271 60.8859 116.379 59.859 116.379 58.0526C116.379 55.2193 120.981 48.5708 120.981 47.7838C120.981 47.7238 120.959 47.6939 120.929 47.6939C119.932 47.6939 111.627 57.8127 111.02 60.2787C110.915 60.6985 110.967 60.9083 110.338 60.9083C109.573 60.9083 108.419 60.3986 108.419 59.4018C108.419 57.8952 114.888 46.3972 115.225 45.9999C115.33 45.88 115.487 45.82 115.697 45.82C116.462 45.82 117.638 46.697 117.638 47.3266C117.638 47.2666 116.012 49.8825 114.115 53.5328C116.979 49.7701 120.479 45.8275 121.498 45.8275C122.653 45.8275 123.89 47.0942 123.89 48.0836C123.89 49.7701 119.34 57.0257 119.34 58.5922C119.34 58.8021 119.422 58.8921 119.58 58.8921C120.292 58.8921 123.89 54.1624 124.287 53.7127C124.317 53.6902 124.369 53.6602 124.444 53.6602Z" fill="white"/>
<path d="M134.773 53.6303C135.013 53.6303 135.35 53.9601 135.35 54.1999C135.35 53.9301 131.437 60.8559 127.337 60.8559C124.684 60.8559 123.552 58.8696 123.552 56.7634C123.552 52.9407 128.469 45.865 131.805 45.865C133.514 45.865 134.616 47.3116 134.616 48.6983C134.616 52.1912 129.646 56.1937 127.128 56.1937C126.865 56.1937 126.655 56.1637 126.468 56.0738C126.333 56.5535 126.281 57.0107 126.281 57.4305C126.281 58.4873 126.73 59.2069 127.855 59.2069C130.381 59.2069 134.241 54.1475 134.638 53.6977C134.668 53.6603 134.72 53.6303 134.773 53.6303ZM127.233 54.4173C129.286 54.4173 132.989 49.6577 132.989 48.1211C132.989 47.8213 132.854 47.6414 132.539 47.6414C131.018 47.6414 128.304 51.2242 127.023 54.3873C127.098 54.4173 127.15 54.4173 127.233 54.4173ZM133.356 38.0997C134.038 38.0398 136.459 41.7125 136.564 42.9793C136.647 44.186 135.567 45.0855 134.646 45.1754C132.967 45.3553 133.334 43.1591 133.019 40.146C131.183 42.0723 129.129 44.3584 128.971 44.3884C128.604 44.4184 128.259 44.0286 128.207 43.6089C128.147 42.642 132.674 38.1597 133.356 38.0997Z" fill="white"/>
<path d="M144 47.0418C144 47.2816 143.865 47.4615 143.633 47.4615C142.868 47.4615 142.343 48.7582 142.343 49.9575C142.343 52.7308 142.478 60.8859 138.191 60.8859C135.14 60.8859 134.301 55.1069 134.301 54.08C134.301 53.6603 134.721 53.3005 134.93 53.3005H134.983L140.687 46.8544C141.264 46.2248 141.924 45.8275 142.658 45.8275C143.55 45.835 144 46.5546 144 47.0418ZM137.689 58.967C138.821 58.967 139.63 53.4579 139.63 49.3879L135.215 54.4473C135.695 56.1338 136.849 58.967 137.689 58.967Z" fill="white"/>
<path d="M11.3383 44.3059C11.3383 42.9941 11.3383 41.7874 11.3383 40.5806C11.3383 38.6918 11.3383 36.8029 11.3383 34.9141C11.3533 30.9715 13.0323 27.9283 16.3078 25.7621C18.2566 24.4729 20.2129 23.2062 22.1618 21.9244C22.3192 21.8195 26.9214 18.8513 28.6603 17.7195C28.6753 17.9669 28.6978 18.1243 28.6978 18.2892C28.6978 19.9981 28.7203 21.7146 28.6978 23.4235C28.6378 27.591 26.8764 30.889 23.4135 33.1976C19.6358 35.7236 15.8056 38.1596 12.0054 40.6406C11.863 40.7305 11.7281 40.8355 11.4957 41.0079C11.6906 41.0453 11.7731 41.0678 11.848 41.0678C14.8087 41.0603 17.7694 41.1203 20.7226 41.0378C24.4928 40.9329 27.9932 39.8985 31.0514 37.6049C34.2894 35.1764 36.2907 31.9084 37.3026 28.0407C38.247 24.4204 38.2994 20.7552 37.5199 17.0824C35.9009 9.42205 29.4548 3.82295 21.6371 3.38821C19.2385 3.25329 16.825 3.32075 14.4264 3.28328C12.9948 3.26079 11.9005 2.44379 11.4657 1.0946C11.3983 0.892228 11.3833 0.674858 11.3458 0.464986C11.2859 0.1127 11.4283 -0.00722843 11.7806 0.000267022C16.023 0.0752215 20.2654 0.0227561 24.4928 0.232629C28.0607 0.405024 31.561 1.10959 34.859 2.5862C37.5349 3.78547 39.7536 5.56939 41.6799 7.78054C43.9735 10.4114 45.4951 13.4021 46.2296 16.7826C47.9911 24.8402 45.5401 34.127 37.9696 39.4788C34.6941 41.7949 31.0439 43.264 27.0788 43.8112C24.8976 44.111 22.6864 44.2234 20.4828 44.2834C17.672 44.3583 14.8537 44.3059 12.0354 44.3059C11.833 44.3059 11.6232 44.3059 11.3383 44.3059Z" fill="white"/>
<path d="M22.6711 6.97852C22.6711 7.30082 22.6711 7.54068 22.6711 7.78053C22.6637 8.85238 22.6936 9.91673 22.6487 10.9886C22.5287 13.5895 21.3445 15.6208 19.1933 17.0524C16.7198 18.7014 14.2163 20.3054 11.7203 21.9244C11.6379 21.9769 11.5404 22.0144 11.398 22.0893C11.3755 21.9094 11.3455 21.7745 11.3455 21.6471C11.3455 20.4328 11.3305 19.2261 11.3455 18.0118C11.3755 15.5908 12.3874 13.6645 14.3887 12.3228C16.9896 10.5763 19.6355 8.89735 22.2589 7.18839C22.3563 7.11343 22.4613 7.07596 22.6711 6.97852Z" fill="white"/>
<path d="M11.353 31.6611C11.1131 31.5187 10.9782 31.4437 10.8508 31.3613C8.39979 29.7722 5.94129 28.1982 3.51276 26.5792C1.22665 25.0576 0.0648585 22.8914 0.0123904 20.1481C-0.010096 18.9563 0.00489506 17.772 0.00489506 16.4903C0.199777 16.5877 0.327199 16.6252 0.432136 16.7002C2.97309 18.3492 5.50655 20.0057 8.04001 21.6547C10.2662 23.1013 11.353 25.1625 11.3455 27.8084C11.353 29.0527 11.353 30.2969 11.353 31.6611Z" fill="white"/>
<path d="M2.75587 3.00598C3.22059 3.2983 3.58037 3.51567 3.92516 3.74803C5.58166 4.82737 7.23815 5.89922 8.88715 6.98606C10.5286 8.06541 11.3457 9.60198 11.3531 11.5658C11.3606 12.5177 11.3531 13.4696 11.3531 14.549C10.4612 13.9718 9.67417 13.4696 8.89464 12.9674C7.76283 12.2329 6.63102 11.4908 5.49921 10.7488C3.6928 9.5645 2.79335 7.87802 2.76337 5.72683C2.74088 4.86485 2.75587 3.99538 2.75587 3.00598Z" fill="white"/>
<path d="M48.4404 30.2895C48.4404 20.3955 53.2375 15.1337 62.2096 15.1337C71.1816 15.1337 75.9337 20.2007 75.9337 29.7124C75.9337 39.419 71.3015 44.336 62.2096 44.336C53.1925 44.3435 48.4404 39.5164 48.4404 30.2895ZM68.131 34.2096C68.131 27.2764 64.9154 17.0526 60.3732 17.0526C57.45 17.0526 56.2882 20.8752 56.2882 25.3725C56.2882 32.3957 59.3763 42.4396 63.926 42.4396C66.9617 42.4321 68.131 38.6544 68.131 34.2096Z" fill="white"/>
<path d="M98.8771 43.534H98.3749L95.744 25.4175C95.1594 21.4524 93.9076 20.0133 92.446 20.0133C90.3173 20.0133 87.8138 22.974 86.3522 25.4175V43.534H78.0098V15.8983H86.3522V22.6367C88.8557 18.4767 93.4429 15.3211 97.2806 15.3211C100.286 15.3211 102.872 17.2774 103.584 22.2019L106.088 39.2391C104.896 39.5614 103.254 40.1535 101.538 41.2928C100.414 42.0499 99.5367 42.8369 98.8771 43.534Z" fill="white"/>
<path d="M132.352 37.1853C132.404 37.1553 132.457 37.1329 132.502 37.1029C132.494 35.9561 132.457 27.6661 132.457 24.7879C132.457 16.6628 126.618 15.1337 122.315 15.1337C119.19 15.1337 116.139 16.2805 113.388 16.2805C112.609 16.2805 111.867 16.1981 111.125 15.9507C111.05 15.9282 110.967 15.9807 110.967 16.0632V25.335C110.967 25.4025 111.02 25.455 111.087 25.455C115.142 25.2826 117.511 16.5654 121.566 16.5654C122.72 16.5654 123.342 17.4048 123.717 18.5666C123.724 18.5966 123.724 18.6341 123.709 18.6641C122.24 21.265 119.34 23.0264 116.394 24.9303C107.647 30.5743 107.294 33.8873 107.302 36.2559C107.302 37.2003 107.519 38.0623 107.827 38.8193C107.834 38.8343 107.842 38.8493 107.857 38.8643C110.233 38.0698 112.624 38.9018 113.561 40.5958C114.363 42.0424 113.845 43.6239 113.725 43.9762C113.733 43.9837 113.748 43.9912 113.763 43.9987C113.77 43.9987 113.778 44.0062 113.785 44.0062C114.1 44.0437 116.476 44.336 117.023 44.336C119.362 44.336 121.933 43.444 123.912 41.2703C123.987 41.1879 124.114 41.2404 124.114 41.3528V43.4065C124.114 43.474 124.167 43.5265 124.234 43.5265H126.865C126.895 43.3841 126.932 43.2417 126.992 43.0992C127.135 42.7694 127.27 42.4396 127.427 42.1173C127.465 42.0349 127.517 41.9749 127.57 41.9225C128.529 40.236 131.077 37.9049 132.097 37.3427C132.179 37.2903 132.269 37.2378 132.352 37.1853ZM124.122 39.0817C122.825 40.6108 121.371 41.3303 120.037 41.3303C117.661 41.3303 115.659 38.9917 115.659 34.5919C115.659 30.0047 117.743 27.8535 120.164 25.365C121.461 24.0233 122.877 22.5917 124.084 20.6354C124.129 21.1601 124.129 21.6848 124.129 22.2094V39.0817H124.122Z" fill="white"/>
</svg>
