<svg width="2000" height="1726" viewBox="0 0 2000 1726" fill="none" xmlns="http://www.w3.org/2000/svg">
<path d="M1548.9 989.7C1548.9 1025.9 1432.5 1213.1 1432.5 1247.2C1432.5 1250 1429.7 1251.2 1425.8 1251.2C1416 1251.2 1398.1 1242.4 1398.1 1228.3C1398.1 1194.2 1512.1 1030.2 1512.1 979.6C1512.1 970.4 1508.2 964.7 1498.8 964.7C1464.4 964.7 1381 1025.8 1381 1060.7C1381 1069.5 1388 1073.2 1388 1076.8C1388 1079.6 1383.4 1081.6 1377.8 1081.6C1366.2 1081.6 1348.3 1073.2 1348.3 1044.6C1348.3 1002 1440.9 946.6 1505 946.6C1529.3 946.8 1548.9 968 1548.9 989.7Z" fill="#583C2B"/>
<path d="M1699.7 1131.5C1702.9 1131.5 1707.1 1135.9 1707.1 1138.7C1707.1 1139.5 1707.1 1139.9 1706.8 1140.3C1700.8 1147.1 1652.8 1227.9 1621.2 1227.9C1604 1227.9 1592.1 1214.2 1592.1 1190.1C1592.1 1152.3 1653.5 1063.6 1653.5 1053.1C1653.5 1052.3 1653.2 1051.9 1652.8 1051.9C1639.5 1051.9 1528.7 1186.9 1520.6 1219.8C1519.2 1225.4 1519.9 1228.2 1511.5 1228.2C1501.3 1228.2 1485.9 1221.4 1485.9 1208.1C1485.9 1188 1572.2 1034.6 1576.7 1029.3C1578.1 1027.7 1580.2 1026.9 1583 1026.9C1593.2 1026.9 1608.9 1038.6 1608.9 1047C1608.9 1046.2 1587.2 1081.1 1561.9 1129.8C1600.1 1079.6 1646.8 1027 1660.4 1027C1675.8 1027 1692.3 1043.9 1692.3 1057.1C1692.3 1079.6 1631.6 1176.4 1631.6 1197.3C1631.6 1200.1 1632.7 1201.3 1634.8 1201.3C1644.3 1201.3 1692.3 1138.2 1697.6 1132.2C1698 1131.9 1698.7 1131.5 1699.7 1131.5Z" fill="#583C2B"/>
<path d="M1837.5 1131.1C1840.7 1131.1 1845.2 1135.5 1845.2 1138.7C1845.2 1135.1 1793 1227.5 1738.3 1227.5C1702.9 1227.5 1687.8 1201 1687.8 1172.9C1687.8 1121.9 1753.4 1027.5 1797.9 1027.5C1820.7 1027.5 1835.4 1046.8 1835.4 1065.3C1835.4 1111.9 1769.1 1165.3 1735.5 1165.3C1732 1165.3 1729.2 1164.9 1726.7 1163.7C1724.9 1170.1 1724.2 1176.2 1724.2 1181.8C1724.2 1195.9 1730.2 1205.5 1745.2 1205.5C1778.9 1205.5 1830.4 1138 1835.7 1132C1836.1 1131.5 1836.8 1131.1 1837.5 1131.1ZM1736.9 1141.6C1764.3 1141.6 1813.7 1078.1 1813.7 1057.6C1813.7 1053.6 1811.9 1051.2 1807.7 1051.2C1787.4 1051.2 1751.2 1099 1734.1 1141.2C1735.1 1141.6 1735.8 1141.6 1736.9 1141.6ZM1818.6 923.9C1827.7 923.1 1860 972.1 1861.4 989C1862.5 1005.1 1848.1 1017.1 1835.8 1018.3C1813.4 1020.7 1818.3 991.4 1814.1 951.2C1789.6 976.9 1762.2 1007.4 1760.1 1007.8C1755.2 1008.2 1750.6 1003 1749.9 997.4C1749.1 984.5 1809.5 924.7 1818.6 923.9Z" fill="#583C2B"/>
<path d="M1960.6 1043.2C1960.6 1046.4 1958.8 1048.8 1955.7 1048.8C1945.5 1048.8 1938.5 1066.1 1938.5 1082.1C1938.5 1119.1 1940.3 1227.9 1883.1 1227.9C1842.4 1227.9 1831.2 1150.8 1831.2 1137.1C1831.2 1131.5 1836.8 1126.7 1839.6 1126.7H1840.3L1916.4 1040.7C1924.1 1032.3 1932.9 1027 1942.7 1027C1954.6 1027.1 1960.6 1036.7 1960.6 1043.2ZM1876.4 1202.3C1891.5 1202.3 1902.3 1128.8 1902.3 1074.5L1843.4 1142C1849.8 1164.5 1865.2 1202.3 1876.4 1202.3Z" fill="#583C2B"/>
<path d="M190.7 1006.7C190.7 989.2 190.7 973.1 190.7 957C190.7 931.8 190.7 906.6 190.7 881.4C190.9 828.8 213.3 788.2 257 759.3C283 742.1 309.1 725.2 335.1 708.1C337.2 706.7 398.6 667.1 421.8 652C422 655.3 422.3 657.4 422.3 659.6C422.3 682.4 422.6 705.3 422.3 728.1C421.5 783.7 398 827.7 351.8 858.5C301.4 892.2 250.3 924.7 199.6 957.8C197.7 959 195.9 960.4 192.8 962.7C195.4 963.2 196.5 963.5 197.5 963.5C237 963.4 276.5 964.2 315.9 963.1C366.2 961.7 412.9 947.9 453.7 917.3C496.9 884.9 523.599 841.3 537.099 789.7C549.699 741.4 550.4 692.5 540 643.5C518.4 541.3 432.4 466.6 328.1 460.8C296.1 459 263.9 459.9 231.9 459.4C212.8 459.1 198.2 448.2 192.4 430.2C191.5 427.5 191.3 424.6 190.8 421.8C190 417.1 191.9 415.5 196.6 415.6C253.2 416.6 309.8 415.9 366.2 418.7C413.8 421 460.5 430.4 504.5 450.1C540.2 466.1 569.799 489.9 595.5 519.4C626.1 554.5 646.4 594.4 656.2 639.5C679.7 747 647 870.9 546 942.3C502.299 973.2 453.6 992.8 400.7 1000.1C371.6 1004.1 342.1 1005.6 312.7 1006.4C275.2 1007.4 237.6 1006.7 200 1006.7C197.3 1006.7 194.5 1006.7 190.7 1006.7Z" fill="#583C2B"/>
<path d="M341.9 508.7C341.9 513 341.9 516.2 341.9 519.4C341.8 533.7 342.2 547.9 341.6 562.2C340 596.9 324.2 624 295.5 643.1C262.5 665.1 229.1 686.5 195.8 708.1C194.7 708.8 193.4 709.3 191.5 710.3C191.2 707.9 190.8 706.1 190.8 704.4C190.8 688.2 190.6 672.1 190.8 655.9C191.2 623.6 204.7 597.9 231.4 580C266.1 556.7 301.4 534.3 336.4 511.5C337.7 510.5 339.1 510 341.9 508.7Z" fill="#583C2B"/>
<path d="M190.9 838C187.7 836.1 185.9 835.1 184.2 834C151.5 812.8 118.7 791.8 86.2999 770.2C55.7999 749.9 40.2999 721 39.5999 684.4C39.2999 668.5 39.4999 652.7 39.4999 635.6C42.0999 636.9 43.7999 637.4 45.1999 638.4C79.0999 660.4 112.9 682.5 146.7 704.5C176.4 723.8 190.9 751.3 190.8 786.6C190.9 803.2 190.9 819.8 190.9 838Z" fill="#583C2B"/>
<path d="M76.2001 455.7C82.4001 459.6 87.2001 462.5 91.8001 465.6C113.9 480 136 494.3 158 508.8C179.9 523.2 190.8 543.7 190.9 569.9C191 582.6 190.9 595.3 190.9 609.7C179 602 168.5 595.3 158.1 588.6C143 578.8 127.9 568.9 112.8 559C88.7001 543.2 76.7001 520.7 76.3001 492C76.0001 480.5 76.2001 468.9 76.2001 455.7Z" fill="#583C2B"/>
<path d="M685.7 819.7C685.7 687.7 749.7 617.5 869.4 617.5C989.1 617.5 1052.5 685.1 1052.5 812C1052.5 941.5 990.7 1007.1 869.4 1007.1C749.1 1007.2 685.7 942.8 685.7 819.7ZM948.4 872C948.4 779.5 905.5 643.1 844.9 643.1C805.9 643.1 790.4 694.1 790.4 754.1C790.4 847.8 831.6 981.8 892.3 981.8C932.8 981.7 948.4 931.3 948.4 872Z" fill="#583C2B"/>
<path d="M1358.6 996.4H1351.9L1316.8 754.7C1309 701.8 1292.3 682.6 1272.8 682.6C1244.4 682.6 1211 722.1 1191.5 754.7V996.4H1080.2V627.7H1191.5V717.6C1224.9 662.1 1286.1 620 1337.3 620C1377.4 620 1411.9 646.1 1421.4 711.8L1454.8 939.1C1438.9 943.4 1417 951.3 1394.1 966.5C1379.1 976.6 1367.4 987.1 1358.6 996.4Z" fill="#583C2B"/>
<path d="M1805.2 911.7C1805.9 911.3 1806.6 911 1807.2 910.6C1807.1 895.3 1806.6 784.7 1806.6 746.3C1806.6 637.9 1728.7 617.5 1671.3 617.5C1629.6 617.5 1588.9 632.8 1552.2 632.8C1541.8 632.8 1531.9 631.7 1522 628.4C1521 628.1 1519.9 628.8 1519.9 629.9V753.6C1519.9 754.5 1520.6 755.2 1521.5 755.2C1575.6 752.9 1607.2 636.6 1661.3 636.6C1676.7 636.6 1685 647.8 1690 663.3C1690.1 663.7 1690.1 664.2 1689.9 664.6C1670.3 699.3 1631.6 722.8 1592.3 748.2C1475.6 823.5 1470.9 867.7 1471 899.3C1471 911.9 1473.9 923.4 1478 933.5C1478.1 933.7 1478.2 933.9 1478.4 934.1C1510.1 923.5 1542 934.6 1554.5 957.2C1565.2 976.5 1558.3 997.6 1556.7 1002.3C1556.8 1002.4 1557 1002.5 1557.2 1002.6C1557.3 1002.6 1557.4 1002.7 1557.5 1002.7C1561.7 1003.2 1593.4 1007.1 1600.7 1007.1C1631.9 1007.1 1666.2 995.2 1692.6 966.2C1693.6 965.1 1695.3 965.8 1695.3 967.3V994.7C1695.3 995.6 1696 996.3 1696.9 996.3H1732C1732.4 994.4 1732.9 992.5 1733.7 990.6C1735.6 986.2 1737.4 981.8 1739.5 977.5C1740 976.4 1740.7 975.6 1741.4 974.9C1754.2 952.4 1788.2 921.3 1801.8 913.8C1802.9 913.1 1804.1 912.4 1805.2 911.7ZM1695.4 937C1678.1 957.4 1658.7 967 1640.9 967C1609.2 967 1582.5 935.8 1582.5 877.1C1582.5 815.9 1610.3 787.2 1642.6 754C1659.9 736.1 1678.8 717 1694.9 690.9C1695.5 697.9 1695.5 704.9 1695.5 711.9V937H1695.4Z" fill="#583C2B"/>
</svg>
